<svg width="44" height="43" viewBox="0 0 44 43" fill="none" xmlns="http://www.w3.org/2000/svg">
<g clip-path="url(#clip0_2_783)">
<path d="M22 0C10.1267 0 0.5 9.62668 0.5 21.5C0.5 33.3733 10.1267 43 22 43C33.8733 43 43.5 33.3733 43.5 21.5C43.5 9.62668 33.8733 0 22 0ZM9.30884 19.1073L12.0837 17.9755C12.3368 16.8972 12.7652 15.8822 13.3323 14.967L12.1689 12.2043L13.8824 10.4908L16.6475 11.6518C17.5627 11.0847 18.5777 10.6587 19.656 10.4031L20.7854 7.62833H23.2122L24.3416 10.4031C25.4223 10.6587 26.4348 11.0847 27.3525 11.6518L30.1151 10.4883L31.8287 12.2019L30.6652 14.967C31.2348 15.8822 31.6608 16.8972 31.9163 17.9779L34.6887 19.1073V20.6919H27.7468C27.9586 17.3645 25.3225 14.5605 22 14.5605C18.6775 14.5605 16.0414 17.3645 16.2532 20.6919H9.30884V19.1073ZM32.7439 24.842C32.7439 26.1734 31.6681 27.2517 30.3366 27.2517C29.0052 27.2517 27.9294 26.1734 27.9294 24.842C27.9294 23.5105 29.0076 22.4347 30.3366 22.4347C31.6656 22.4347 32.7439 23.513 32.7439 24.842ZM25.4904 22.8363C25.4904 24.7641 23.9278 26.3267 22 26.3267C20.0722 26.3267 18.5071 24.7641 18.5071 22.8363C18.5071 20.9085 20.0698 19.3434 22 19.3434C23.9302 19.3434 25.4904 20.9061 25.4904 22.8363ZM16.0682 24.842C16.0682 26.1734 14.9899 27.2517 13.6609 27.2517C12.3319 27.2517 11.2537 26.1734 11.2537 24.842C11.2537 23.5105 12.3319 22.4347 13.6609 22.4347C14.9899 22.4347 16.0682 23.513 16.0682 24.842ZM8.7271 32.8111V31.4699C8.84637 29.8488 9.7421 28.4444 11.0468 27.6314C12.2492 28.7583 14.0479 28.992 15.4986 28.1936C14.508 29.5421 13.9603 31.1389 13.9506 32.8111H8.7271ZM29.1561 34.3981H14.8414V32.4508C15.0118 30.0995 16.3165 28.0622 18.2077 26.8817C20.34 28.8801 23.6576 28.8801 25.7898 26.8817C27.6835 28.0622 28.9857 30.0995 29.1561 32.4508V34.3981ZM35.2705 32.8111H30.0494C30.0397 31.1389 29.4896 29.5421 28.4989 28.1936C29.9496 28.992 31.7484 28.7583 32.9508 27.6314C34.2555 28.4444 35.1536 29.8488 35.2705 31.4699V32.8111Z" fill="#39FFFF"/>
</g>
<defs>
<clipPath id="clip0_2_783">
<rect width="43" height="43" fill="white" transform="translate(0.5)"/>
</clipPath>
</defs>
</svg>
