<svg width="44" height="43" viewBox="0 0 44 43" fill="none" xmlns="http://www.w3.org/2000/svg">
<g clip-path="url(#clip0_2_770)">
<path d="M22 0C10.1267 0 0.5 9.62668 0.5 21.5C0.5 33.3733 10.1267 43 22 43C33.8733 43 43.5 33.3733 43.5 21.5C43.5 9.62668 33.8733 0 22 0ZM16.2775 34.5392C16.2775 32.6334 17.2268 30.8516 18.809 29.7904C18.8114 29.788 18.8138 29.788 18.8138 29.788C18.9623 29.6906 19.1595 29.732 19.2568 29.8804L22 34.0573L24.7432 29.8804L24.7456 29.8756C24.8454 29.7295 25.045 29.6906 25.191 29.7904C26.7732 30.8516 27.7225 32.6334 27.7225 34.5392C27.7225 37.7011 16.2775 37.7011 16.2775 34.5392ZM15.8151 20.8647L14.8609 20.0785C14.8317 20.0566 14.8147 20.0225 14.8147 19.9885C14.8098 19.9179 14.8634 19.857 14.9339 19.8521L16.168 19.7767C16.2191 19.7743 16.2629 19.7426 16.28 19.6939L16.7327 18.5451C16.7473 18.511 16.7717 18.4842 16.8057 18.472C16.8714 18.4453 16.9469 18.4769 16.9712 18.5451L17.4264 19.6939C17.4435 19.7426 17.4873 19.7743 17.5384 19.7767L18.7724 19.8521C18.8065 19.8546 18.8406 19.8692 18.8625 19.8984C18.9088 19.9519 18.899 20.0323 18.8455 20.0785L17.8913 20.8647C17.8524 20.8964 17.8353 20.9475 17.8475 20.9962L18.1591 22.1937C18.1664 22.2278 18.1615 22.2643 18.142 22.2959C18.1031 22.3544 18.0252 22.3714 17.9643 22.3349L16.9226 21.6704C16.8787 21.6412 16.8252 21.6412 16.7838 21.6704L15.7396 22.3349C15.7104 22.3519 15.6739 22.3592 15.6398 22.3495C15.5717 22.3324 15.5303 22.2619 15.5473 22.1937L15.8564 20.9962C15.8711 20.9475 15.854 20.8964 15.8151 20.8647ZM23.3047 18.2019C23.3144 18.2359 23.3071 18.2724 23.29 18.3017C23.2511 18.3625 23.1708 18.3795 23.1124 18.3406L22.0682 17.6761C22.0268 17.6493 21.9732 17.6493 21.9318 17.6761L20.8876 18.3406C20.8584 18.3601 20.8219 18.3674 20.7878 18.3576C20.7173 18.3406 20.6759 18.27 20.6953 18.2019L21.0045 17.0043C21.0166 16.9556 20.9996 16.9045 20.9607 16.8729L20.0065 16.0867C19.9797 16.0623 19.9627 16.0307 19.9603 15.9942C19.9554 15.9236 20.0114 15.8627 20.082 15.8579L21.316 15.7824C21.3647 15.78 21.4085 15.7483 21.428 15.7021L21.8807 14.5508C21.8929 14.5191 21.9197 14.4924 21.9513 14.4802C22.0195 14.4534 22.0925 14.4851 22.1193 14.5508L22.572 15.7021C22.589 15.7483 22.6329 15.78 22.684 15.7824L23.918 15.8579C23.9545 15.8579 23.9862 15.8773 24.0105 15.9041C24.0543 15.9601 24.047 16.0404 23.9911 16.0867L23.0369 16.8729C22.998 16.9045 22.9809 16.9556 22.9955 17.0043L23.3047 18.2019ZM20.1306 22.7803C20.6077 22.3008 21.2698 22.0063 22 22.0063C23.4604 22.0063 24.6434 23.1892 24.6434 24.6497C24.6434 26.1101 23.4604 27.2955 22 27.2955C20.5396 27.2955 19.3542 26.1101 19.3542 24.6497C19.3542 23.9194 19.6511 23.2598 20.1306 22.7803ZM22.8276 31.1583L22 32.4192L21.17 31.1583L21.299 30.2017C21.2235 30.1482 21.1676 30.0727 21.1383 29.9827L20.9412 29.3693C20.9266 29.3279 20.9193 29.2817 20.9193 29.2379C20.9193 29.0042 21.1091 28.8168 21.3404 28.8192H22.6596C22.7034 28.8168 22.7497 28.8241 22.7911 28.8387C23.0126 28.9117 23.1318 29.1478 23.0588 29.3693L22.8592 29.9827C22.8324 30.0703 22.7765 30.1482 22.701 30.1993L22.8276 31.1583ZM28.4527 22.1937C28.46 22.2278 28.4527 22.2643 28.4356 22.2959C28.3991 22.3544 28.3188 22.3714 28.258 22.3349L27.2162 21.6704C27.1748 21.6412 27.1188 21.6412 27.0774 21.6704L26.0357 22.3349C26.004 22.3519 25.9675 22.3592 25.9334 22.3495C25.8653 22.3324 25.8239 22.2619 25.8409 22.1937L26.1525 20.9962C26.1647 20.9475 26.1476 20.8964 26.1087 20.8647L25.1545 20.0785C25.1278 20.0566 25.1107 20.0225 25.1083 19.9885C25.1034 19.9179 25.157 19.857 25.2276 19.8521L26.4616 19.7767C26.5127 19.7743 26.5565 19.7426 26.5736 19.6939L27.0263 18.5451C27.0409 18.511 27.0677 18.4842 27.0993 18.472C27.1651 18.4453 27.2405 18.4769 27.2673 18.5451L27.72 19.6939C27.7371 19.7426 27.7809 19.7743 27.832 19.7767L29.0661 19.8521C29.1001 19.8546 29.1342 19.8692 29.1561 19.8984C29.2024 19.9519 29.1951 20.0323 29.1391 20.0785L28.1849 20.8647C28.146 20.8964 28.1289 20.9475 28.1436 20.9962L28.4527 22.1937ZM36.3974 24.0533C34.3431 24.0533 32.9824 25.7377 32.9824 27.4902C32.9824 28.3275 33.2916 29.1819 33.9853 29.8756C34.382 30.2699 34.382 30.9125 33.9853 31.3068L31.8068 33.4853C31.4125 33.882 30.7699 33.882 30.3756 33.4853C29.8206 32.9206 29.0855 32.5701 28.2969 32.4971C27.9099 31.2995 27.187 30.2383 26.2182 29.4375C29.1537 27.8772 30.989 24.8249 30.9865 21.5C30.9865 16.537 26.963 12.5135 21.9976 12.5135C17.0321 12.5135 13.011 16.5394 13.0135 21.5024C13.0135 24.8249 14.8463 27.8772 17.7818 29.4375C16.813 30.2383 16.0901 31.2995 15.7031 32.4946C14.9145 32.5701 14.1769 32.9206 13.6244 33.4853C13.2277 33.882 12.5875 33.882 12.1932 33.4853L10.0123 31.3068C9.61797 30.9101 9.61797 30.2699 10.0123 29.8756C10.706 29.1819 11.0175 28.3275 11.0175 27.4902C11.0175 25.7377 9.65448 24.0533 7.60257 24.0533C7.04274 24.0533 6.59 23.5982 6.59 23.0408V19.9592C6.59 19.3994 7.04274 18.9467 7.60257 18.9467C9.65448 18.9467 11.0175 17.2623 11.0175 15.5074C11.0175 14.67 10.706 13.8181 10.0123 13.1244C9.61797 12.7277 9.61797 12.0875 10.0123 11.6908L12.1932 9.51228C12.5875 9.11797 13.2301 9.11797 13.6244 9.51228C14.3181 10.206 15.1725 10.5175 16.0098 10.5175C17.7623 10.5175 19.4467 9.15448 19.4467 7.10014C19.4467 6.54274 19.8994 6.09 20.4592 6.09H23.5408C24.1006 6.09 24.5533 6.54274 24.5533 7.10014C24.5533 9.15448 26.2377 10.5175 27.9902 10.5175C28.8275 10.5175 29.6819 10.206 30.3756 9.51228C30.7699 9.11797 31.4125 9.11797 31.8068 9.51228L33.9877 11.6932C34.382 12.0875 34.382 12.7277 33.9877 13.1244C31.8409 15.2688 33.3646 18.9467 36.3974 18.9467C36.9573 18.9467 37.41 19.3994 37.41 19.9592V23.0408C37.41 23.6006 36.9573 24.0533 36.3974 24.0533Z" fill="#39FFFF"/>
</g>
<defs>
<clipPath id="clip0_2_770">
<rect width="43" height="43" fill="white" transform="translate(0.5)"/>
</clipPath>
</defs>
</svg>
