<svg width="44" height="43" viewBox="0 0 44 43" fill="none" xmlns="http://www.w3.org/2000/svg">
<g clip-path="url(#clip0_2_788)">
<path d="M22.0012 0C10.1248 0 0.5 9.62479 0.5 21.4988C0.5 33.3728 10.1248 43 22.0012 43C33.8776 43 43.5024 33.3752 43.5024 21.4988C43.5024 9.62236 33.8752 0 22.0012 0ZM9.75723 16.4308C9.75723 10.9514 14.1972 6.51146 19.6741 6.51146V9.93881H20.5577C21.6288 9.93881 22.4978 10.8078 22.4978 11.8789C22.4978 12.9499 21.6288 13.8213 20.5577 13.8213H19.6741V17.2463H9.79131C9.7694 16.9785 9.75723 16.7059 9.75723 16.4308ZM16.5778 25.7367C15.3802 24.2397 14.6061 22.3873 14.4406 20.3645H22.5684V22.139C20.9521 22.5333 19.7472 23.9938 19.7472 25.7318C19.7472 27.4699 20.9521 28.9304 22.5684 29.3247V30.868H18.8538C18.5617 28.9985 17.773 27.2313 16.5778 25.7367ZM29.6738 36.4885H18.978V32.6352L29.6738 32.6255V36.4885ZM32.0739 25.7367C30.8787 27.2313 30.0876 28.9985 29.7979 30.868H24.3259V27.6743H23.4447C22.3712 27.6743 21.5022 26.8053 21.5022 25.7318C21.5022 24.6584 22.3712 23.7918 23.4447 23.7918H24.3259V20.3645H34.2111C34.0456 22.3873 33.2715 24.2397 32.0739 25.7367ZM34.2111 18.607H24.3259V15.1894H25.207C26.2805 15.1894 27.1495 14.3204 27.1495 13.2493C27.1495 12.1783 26.2805 11.3068 25.207 11.3068H24.3259V7.87948C29.8077 7.87948 34.2306 12.2951 34.2428 17.7769C34.2452 18.0568 34.233 18.3343 34.2111 18.607Z" fill="#39FFFF"/>
</g>
<defs>
<clipPath id="clip0_2_788">
<rect width="43.0024" height="43" fill="white" transform="translate(0.5)"/>
</clipPath>
</defs>
</svg>
